<?xml version="1.0" encoding="utf-8" standalone="no"?>
<!DOCTYPE svg PUBLIC "-//W3C//DTD SVG 1.1//EN"
  "http://www.w3.org/Graphics/SVG/1.1/DTD/svg11.dtd">
<svg xmlns:xlink="http://www.w3.org/1999/xlink" width="648pt" height="432pt" viewBox="0 0 648 432" xmlns="http://www.w3.org/2000/svg" version="1.1">
 <metadata>
  <rdf:RDF xmlns:dc="http://purl.org/dc/elements/1.1/" xmlns:cc="http://creativecommons.org/ns#" xmlns:rdf="http://www.w3.org/1999/02/22-rdf-syntax-ns#">
   <cc:Work>
    <dc:type rdf:resource="http://purl.org/dc/dcmitype/StillImage"/>
    <dc:date>2026-09-15T00:09:51.062762</dc:date>
    <dc:format>image/svg+xml</dc:format>
    <dc:creator>
     <cc:Agent>
      <dc:title>Matplotlib v3.9.4, https://matplotlib.org/</dc:title>
     </cc:Agent>
    </dc:creator>
   </cc:Work>
  </rdf:RDF>
 </metadata>
 <defs>
  <style type="text/css">*{stroke-linejoin: round; stroke-linecap: butt}</style>
 </defs>
 <g id="figure_1">
  <g id="patch_1">
   <path d="M 0 432 
L 648 432 
L 648 0 
L 0 0 
z
" style="fill: #ffffff"/>
  </g>
  <g id="patch_2">
   <path d="M 114.48 421.2 
L 520.56 421.2 
L 520.56 15.12 
L 114.48 15.12 
z
" style="fill: #ffffff"/>
  </g>
  <g id="pane3d_1">
   <g id="patch_3">
    <path d="M 323.007568 211.186497 
L 515.624296 298.632662 
L 515.624296 126.712203 
L 323.007568 39.266038 
" style="fill: none; opacity: 0"/>
   </g>
  </g>
  <g id="pane3d_2">
   <g id="patch_4">
    <path d="M 323.007568 211.186497 
L 130.390839 298.632662 
L 130.390839 126.712203 
L 323.007568 39.266038 
" style="fill: none; opacity: 0"/>
   </g>
  </g>
  <g id="pane3d_3">
   <g id="patch_5">
    <path d="M 323.007568 211.186497 
L 130.390839 298.632662 
L 323.007568 386.078827 
L 515.624296 298.632662 
" style="fill: none; opacity: 0"/>
   </g>
  </g>
  <g id="grid3d_1">
   <g id="Line3DCollection_1">
    <path d="M 515.624296 298.632662 
L 323.007568 211.186497 
L 323.007568 39.266038 
" style="fill: none; stroke: #e6e5e9; stroke-width: 0.6"/>
    <path d="M 438.577605 333.611128 
L 245.960876 246.164963 
L 245.960876 74.244504 
" style="fill: none; stroke: #e6e5e9; stroke-width: 0.6"/>
    <path d="M 361.530913 368.589594 
L 168.914185 281.143429 
L 168.914185 109.22297 
" style="fill: none; stroke: #e6e5e9; stroke-width: 0.6"/>
   </g>
  </g>
  <g id="grid3d_2">
   <g id="Line3DCollection_2">
    <path d="M 323.007568 39.266038 
L 323.007568 211.186497 
L 130.390839 298.632662 
" style="fill: none; stroke: #e6e5e9; stroke-width: 0.6"/>
    <path d="M 400.054259 74.244504 
L 400.054259 246.164963 
L 207.437531 333.611128 
" style="fill: none; stroke: #e6e5e9; stroke-width: 0.6"/>
    <path d="M 477.10095 109.22297 
L 477.10095 281.143429 
L 284.484222 368.589594 
" style="fill: none; stroke: #e6e5e9; stroke-width: 0.6"/>
   </g>
  </g>
  <g id="grid3d_3">
   <g id="Line3DCollection_3">
    <path d="M 130.390839 298.632662 
L 323.007568 211.186497 
L 515.624296 298.632662 
" style="fill: none; stroke: #e6e5e9; stroke-width: 0.6"/>
    <path d="M 130.390839 255.652547 
L 323.007568 168.206383 
L 515.624296 255.652547 
" style="fill: none; stroke: #e6e5e9; stroke-width: 0.6"/>
    <path d="M 130.390839 212.672432 
L 323.007568 125.226268 
L 515.624296 212.672432 
" style="fill: none; stroke: #e6e5e9; stroke-width: 0.6"/>
    <path d="M 130.390839 169.692318 
L 323.007568 82.246153 
L 515.624296 169.692318 
" style="fill: none; stroke: #e6e5e9; stroke-width: 0.6"/>
    <path d="M 130.390839 126.712203 
L 323.007568 39.266038 
L 515.624296 126.712203 
" style="fill: none; stroke: #e6e5e9; stroke-width: 0.6"/>
   </g>
  </g>
  <g id="axis3d_1">
   <g id="line2d_1">
    <path d="M 515.624296 298.632662 
L 323.007568 386.078827 
" style="fill: none; stroke: #a5a9af; stroke-width: 0.9; stroke-linecap: square"/>
   </g>
   <g id="xtick_1">
    <g id="line2d_2">
     <path d="M 515.624296 298.632662 
L 515.624296 298.632662 
" style="fill: none; stroke: #6e747a; stroke-width: 0.8; stroke-linecap: square"/>
    </g>
    <g id="text_1">
     <!-- 0 -->
     <g style="fill: #6e747a" transform="translate(519.367003 320.307352) scale(0.14 -0.14)">
      <defs>
       <path id="DejaVuSans-30" d="M 2034 4250 
Q 1547 4250 1301 3770 
Q 1056 3291 1056 2328 
Q 1056 1369 1301 889 
Q 1547 409 2034 409 
Q 2525 409 2770 889 
Q 3016 1369 3016 2328 
Q 3016 3291 2770 3770 
Q 2525 4250 2034 4250 
z
M 2034 4750 
Q 2819 4750 3233 4129 
Q 3647 3509 3647 2328 
Q 3647 1150 3233 529 
Q 2819 -91 2034 -91 
Q 1250 -91 836 529 
Q 422 1150 422 2328 
Q 422 3509 836 4129 
Q 1250 4750 2034 4750 
z
" transform="scale(0.015625)"/>
      </defs>
      <use xlink:href="#DejaVuSans-30"/>
     </g>
    </g>
   </g>
   <g id="xtick_2">
    <g id="line2d_3">
     <path d="M 438.577605 333.611128 
L 438.577605 333.611128 
" style="fill: none; stroke: #6e747a; stroke-width: 0.8; stroke-linecap: square"/>
    </g>
    <g id="text_2">
     <!-- 2 -->
     <g style="fill: #6e747a" transform="translate(442.320311 355.285818) scale(0.14 -0.14)">
      <defs>
       <path id="DejaVuSans-32" d="M 1228 531 
L 3431 531 
L 3431 0 
L 469 0 
L 469 531 
Q 828 903 1448 1529 
Q 2069 2156 2228 2338 
Q 2531 2678 2651 2914 
Q 2772 3150 2772 3378 
Q 2772 3750 2511 3984 
Q 2250 4219 1831 4219 
Q 1534 4219 1204 4116 
Q 875 4013 500 3803 
L 500 4441 
Q 881 4594 1212 4672 
Q 1544 4750 1819 4750 
Q 2544 4750 2975 4387 
Q 3406 4025 3406 3419 
Q 3406 3131 3298 2873 
Q 3191 2616 2906 2266 
Q 2828 2175 2409 1742 
Q 1991 1309 1228 531 
z
" transform="scale(0.015625)"/>
      </defs>
      <use xlink:href="#DejaVuSans-32"/>
     </g>
    </g>
   </g>
   <g id="xtick_3">
    <g id="line2d_4">
     <path d="M 361.530913 368.589594 
L 361.530913 368.589594 
" style="fill: none; stroke: #6e747a; stroke-width: 0.8; stroke-linecap: square"/>
    </g>
    <g id="text_3">
     <!-- 4 -->
     <g style="fill: #6e747a" transform="translate(365.27362 390.264284) scale(0.14 -0.14)">
      <defs>
       <path id="DejaVuSans-34" d="M 2419 4116 
L 825 1625 
L 2419 1625 
L 2419 4116 
z
M 2253 4666 
L 3047 4666 
L 3047 1625 
L 3713 1625 
L 3713 1100 
L 3047 1100 
L 3047 0 
L 2419 0 
L 2419 1100 
L 313 1100 
L 313 1709 
L 2253 4666 
z
" transform="scale(0.015625)"/>
      </defs>
      <use xlink:href="#DejaVuSans-34"/>
     </g>
    </g>
   </g>
   <g id="text_4">
    <!-- $x_1$ -->
    <g style="fill: #24272b" transform="translate(438.212498 389.815603) rotate(-24.417597) scale(0.28 -0.28)">
     <defs>
      <path id="STIXGeneral-Italic-78" d="M 1555 2272 
L 1632 1907 
Q 1971 2426 2179 2624 
Q 2387 2822 2598 2822 
Q 2714 2822 2787 2755 
Q 2861 2688 2861 2585 
Q 2861 2483 2800 2419 
Q 2739 2355 2643 2355 
Q 2586 2355 2490 2409 
Q 2394 2464 2310 2464 
Q 2125 2464 1683 1690 
Q 1683 1606 1734 1402 
L 1939 544 
Q 2003 282 2131 282 
Q 2234 282 2432 538 
Q 2451 563 2476 598 
Q 2502 634 2521 662 
Q 2541 691 2566 717 
L 2662 659 
Q 2387 230 2227 80 
Q 2067 -70 1882 -70 
Q 1728 -70 1645 26 
Q 1562 122 1504 365 
L 1318 1126 
L 755 365 
Q 557 96 432 13 
Q 307 -70 147 -70 
Q 0 -70 -86 0 
Q -173 70 -173 198 
Q -173 294 -112 361 
Q -51 429 45 429 
Q 122 429 250 358 
Q 346 301 416 301 
Q 525 301 742 614 
L 1267 1357 
L 1088 2150 
Q 1024 2432 969 2509 
Q 915 2586 794 2586 
Q 717 2586 544 2541 
L 429 2509 
L 410 2611 
L 480 2637 
Q 992 2822 1229 2822 
Q 1350 2822 1420 2707 
Q 1491 2592 1555 2272 
z
" transform="scale(0.015625)"/>
      <path id="STIXGeneral-Regular-31" d="M 2522 0 
L 755 0 
L 755 96 
Q 1107 115 1235 227 
Q 1363 339 1363 608 
L 1363 3482 
Q 1363 3795 1171 3795 
Q 1082 3795 883 3718 
L 710 3654 
L 710 3744 
L 1856 4326 
L 1914 4307 
L 1914 486 
Q 1914 275 2042 185 
Q 2170 96 2522 96 
L 2522 0 
z
" transform="scale(0.015625)"/>
     </defs>
     <use xlink:href="#STIXGeneral-Italic-78" transform="translate(0 0.90625)"/>
     <use xlink:href="#STIXGeneral-Regular-31" transform="translate(44.399994 -12.321875) scale(0.7)"/>
    </g>
   </g>
  </g>
  <g id="axis3d_2">
   <g id="line2d_5">
    <path d="M 130.390839 298.632662 
L 323.007568 386.078827 
" style="fill: none; stroke: #a5a9af; stroke-width: 0.9; stroke-linecap: square"/>
   </g>
   <g id="xtick_4">
    <g id="line2d_6">
     <path d="M 130.390839 298.632662 
L 130.390839 298.632662 
" style="fill: none; stroke: #6e747a; stroke-width: 0.8; stroke-linecap: square"/>
    </g>
    <g id="text_5">
     <!-- 0 -->
     <g style="fill: #6e747a" transform="translate(117.740633 320.307352) scale(0.14 -0.14)">
      <use xlink:href="#DejaVuSans-30"/>
     </g>
    </g>
   </g>
   <g id="xtick_5">
    <g id="line2d_7">
     <path d="M 207.437531 333.611128 
L 207.437531 333.611128 
" style="fill: none; stroke: #6e747a; stroke-width: 0.8; stroke-linecap: square"/>
    </g>
    <g id="text_6">
     <!-- 2 -->
     <g style="fill: #6e747a" transform="translate(194.787324 355.285818) scale(0.14 -0.14)">
      <use xlink:href="#DejaVuSans-32"/>
     </g>
    </g>
   </g>
   <g id="xtick_6">
    <g id="line2d_8">
     <path d="M 284.484222 368.589594 
L 284.484222 368.589594 
" style="fill: none; stroke: #6e747a; stroke-width: 0.8; stroke-linecap: square"/>
    </g>
    <g id="text_7">
     <!-- 4 -->
     <g style="fill: #6e747a" transform="translate(271.834015 390.264284) scale(0.14 -0.14)">
      <use xlink:href="#DejaVuSans-34"/>
     </g>
    </g>
   </g>
   <g id="text_8">
    <!-- $x_2$ -->
    <g style="fill: #24272b" transform="translate(186.386343 380.092809) rotate(-335.582403) scale(0.28 -0.28)">
     <defs>
      <path id="STIXGeneral-Regular-32" d="M 3034 877 
L 2688 0 
L 186 0 
L 186 77 
L 1325 1286 
Q 1773 1754 1965 2144 
Q 2157 2534 2157 2950 
Q 2157 3379 1920 3616 
Q 1683 3853 1267 3853 
Q 922 3853 720 3673 
Q 518 3494 326 3021 
L 192 3053 
Q 301 3648 630 3987 
Q 960 4326 1523 4326 
Q 2054 4326 2380 4006 
Q 2707 3686 2707 3200 
Q 2707 2477 1888 1613 
L 832 486 
L 2330 486 
Q 2541 486 2665 569 
Q 2790 653 2944 915 
L 3034 877 
z
" transform="scale(0.015625)"/>
     </defs>
     <use xlink:href="#STIXGeneral-Italic-78" transform="translate(0 0.90625)"/>
     <use xlink:href="#STIXGeneral-Regular-32" transform="translate(44.399994 -12.321875) scale(0.7)"/>
    </g>
   </g>
  </g>
  <g id="axis3d_3">
   <g id="line2d_9">
    <path d="M 130.390839 298.632662 
L 130.390839 126.712203 
" style="fill: none; stroke: #a5a9af; stroke-width: 0.9; stroke-linecap: square"/>
   </g>
   <g id="xtick_7">
    <g id="line2d_10">
     <path d="M 130.390839 298.632662 
L 130.390839 298.632662 
" style="fill: none; stroke: #6e747a; stroke-width: 0.8; stroke-linecap: square"/>
    </g>
    <g id="text_9">
     <!-- 0 -->
     <g style="fill: #6e747a" transform="translate(109.544176 309.270475) scale(0.14 -0.14)">
      <use xlink:href="#DejaVuSans-30"/>
     </g>
    </g>
   </g>
   <g id="xtick_8">
    <g id="line2d_11">
     <path d="M 130.390839 255.652547 
L 130.390839 255.652547 
" style="fill: none; stroke: #6e747a; stroke-width: 0.8; stroke-linecap: square"/>
    </g>
    <g id="text_10">
     <!-- 2 -->
     <g style="fill: #6e747a" transform="translate(109.544176 266.29036) scale(0.14 -0.14)">
      <use xlink:href="#DejaVuSans-32"/>
     </g>
    </g>
   </g>
   <g id="xtick_9">
    <g id="line2d_12">
     <path d="M 130.390839 212.672432 
L 130.390839 212.672432 
" style="fill: none; stroke: #6e747a; stroke-width: 0.8; stroke-linecap: square"/>
    </g>
    <g id="text_11">
     <!-- 4 -->
     <g style="fill: #6e747a" transform="translate(109.544176 223.310245) scale(0.14 -0.14)">
      <use xlink:href="#DejaVuSans-34"/>
     </g>
    </g>
   </g>
   <g id="xtick_10">
    <g id="line2d_13">
     <path d="M 130.390839 169.692318 
L 130.390839 169.692318 
" style="fill: none; stroke: #6e747a; stroke-width: 0.8; stroke-linecap: square"/>
    </g>
    <g id="text_12">
     <!-- 6 -->
     <g style="fill: #6e747a" transform="translate(109.544176 180.33013) scale(0.14 -0.14)">
      <defs>
       <path id="DejaVuSans-36" d="M 2113 2584 
Q 1688 2584 1439 2293 
Q 1191 2003 1191 1497 
Q 1191 994 1439 701 
Q 1688 409 2113 409 
Q 2538 409 2786 701 
Q 3034 994 3034 1497 
Q 3034 2003 2786 2293 
Q 2538 2584 2113 2584 
z
M 3366 4563 
L 3366 3988 
Q 3128 4100 2886 4159 
Q 2644 4219 2406 4219 
Q 1781 4219 1451 3797 
Q 1122 3375 1075 2522 
Q 1259 2794 1537 2939 
Q 1816 3084 2150 3084 
Q 2853 3084 3261 2657 
Q 3669 2231 3669 1497 
Q 3669 778 3244 343 
Q 2819 -91 2113 -91 
Q 1303 -91 875 529 
Q 447 1150 447 2328 
Q 447 3434 972 4092 
Q 1497 4750 2381 4750 
Q 2619 4750 2861 4703 
Q 3103 4656 3366 4563 
z
" transform="scale(0.015625)"/>
      </defs>
      <use xlink:href="#DejaVuSans-36"/>
     </g>
    </g>
   </g>
   <g id="xtick_11">
    <g id="line2d_14">
     <path d="M 130.390839 126.712203 
L 130.390839 126.712203 
" style="fill: none; stroke: #6e747a; stroke-width: 0.8; stroke-linecap: square"/>
    </g>
    <g id="text_13">
     <!-- 8 -->
     <g style="fill: #6e747a" transform="translate(109.544176 137.350015) scale(0.14 -0.14)">
      <defs>
       <path id="DejaVuSans-38" d="M 2034 2216 
Q 1584 2216 1326 1975 
Q 1069 1734 1069 1313 
Q 1069 891 1326 650 
Q 1584 409 2034 409 
Q 2484 409 2743 651 
Q 3003 894 3003 1313 
Q 3003 1734 2745 1975 
Q 2488 2216 2034 2216 
z
M 1403 2484 
Q 997 2584 770 2862 
Q 544 3141 544 3541 
Q 544 4100 942 4425 
Q 1341 4750 2034 4750 
Q 2731 4750 3128 4425 
Q 3525 4100 3525 3541 
Q 3525 3141 3298 2862 
Q 3072 2584 2669 2484 
Q 3125 2378 3379 2068 
Q 3634 1759 3634 1313 
Q 3634 634 3220 271 
Q 2806 -91 2034 -91 
Q 1263 -91 848 271 
Q 434 634 434 1313 
Q 434 1759 690 2068 
Q 947 2378 1403 2484 
z
M 1172 3481 
Q 1172 3119 1398 2916 
Q 1625 2713 2034 2713 
Q 2441 2713 2670 2916 
Q 2900 3119 2900 3481 
Q 2900 3844 2670 4047 
Q 2441 4250 2034 4250 
Q 1625 4250 1398 4047 
Q 1172 3844 1172 3481 
z
" transform="scale(0.015625)"/>
      </defs>
      <use xlink:href="#DejaVuSans-38"/>
     </g>
    </g>
   </g>
   <g id="text_14">
    <!-- $Q(x)$ -->
    <g style="fill: #24272b" transform="translate(44.542056 219.846807) scale(0.26 -0.26)">
     <defs>
      <path id="STIXGeneral-Italic-51" d="M 442 -1082 
L 378 -979 
Q 749 -717 912 -589 
Q 1075 -461 1510 -77 
Q 966 32 675 425 
Q 384 819 384 1440 
Q 384 2035 678 2624 
Q 973 3213 1491 3661 
Q 2202 4262 3034 4262 
Q 3680 4262 4077 3833 
Q 4474 3405 4474 2746 
Q 4474 1997 4019 1277 
Q 3565 557 2835 173 
Q 2400 -64 1786 -102 
L 1440 -467 
L 1600 -467 
Q 1824 -467 2387 -595 
Q 2938 -730 3098 -730 
Q 3443 -730 3673 -624 
Q 3904 -518 4173 -237 
L 4275 -307 
Q 4122 -525 3942 -685 
Q 3411 -1165 2720 -1165 
Q 2298 -1165 1773 -998 
Q 1421 -883 1178 -883 
Q 800 -883 442 -1082 
z
M 3802 3072 
Q 3802 3526 3581 3788 
Q 3360 4051 2976 4051 
Q 2272 4051 1734 3251 
Q 1446 2822 1251 2230 
Q 1056 1638 1056 1171 
Q 1056 691 1273 400 
Q 1491 109 1850 109 
Q 2579 109 3117 902 
Q 3411 1350 3606 1964 
Q 3802 2579 3802 3072 
z
" transform="scale(0.015625)"/>
      <path id="STIXGeneral-Regular-28" d="M 1946 -1030 
L 1869 -1133 
Q 1126 -710 716 32 
Q 307 774 307 1613 
Q 307 3386 1888 4326 
L 1946 4224 
Q 1293 3667 1075 3126 
Q 858 2586 858 1632 
Q 858 685 1082 96 
Q 1306 -493 1946 -1030 
z
" transform="scale(0.015625)"/>
      <path id="STIXGeneral-Regular-29" d="M 186 4224 
L 262 4326 
Q 992 3891 1408 3148 
Q 1824 2406 1824 1581 
Q 1824 -166 243 -1133 
L 186 -1030 
Q 845 -486 1059 54 
Q 1274 595 1274 1562 
Q 1274 2534 1059 3120 
Q 845 3706 186 4224 
z
" transform="scale(0.015625)"/>
     </defs>
     <use xlink:href="#STIXGeneral-Italic-51" transform="translate(0 0.40625)"/>
     <use xlink:href="#STIXGeneral-Regular-28" transform="translate(72.199982 0.40625)"/>
     <use xlink:href="#STIXGeneral-Italic-78" transform="translate(105.499969 0.40625)"/>
     <use xlink:href="#STIXGeneral-Regular-29" transform="translate(149.899963 0.40625)"/>
    </g>
   </g>
  </g>
  <g id="axes_1">
   <g id="Poly3DCollection_1">
    <path d="M 323.007568 53.592743 
L 303.745895 62.337359 
L 323.007568 71.081976 
L 342.26924 62.337359 
z
" clip-path="url(#p8da47b9b46)" style="fill: #b39dcf; stroke: #80649f; stroke-width: 0.7"/>
    <path d="M 342.26924 76.664064 
L 323.007568 85.408681 
L 342.26924 94.153297 
L 361.530913 85.408681 
z
" clip-path="url(#p8da47b9b46)" style="fill: #b9a5d2; stroke: #80649f; stroke-width: 0.7"/>
    <path d="M 303.745895 69.500712 
L 284.484222 78.245328 
L 303.745895 86.989945 
L 323.007568 78.245328 
z
" clip-path="url(#p8da47b9b46)" style="fill: #b6a1d0; stroke: #80649f; stroke-width: 0.7"/>
    <path d="M 361.530913 92.572033 
L 342.26924 101.31665 
L 361.530913 110.061266 
L 380.792586 101.31665 
z
" clip-path="url(#p8da47b9b46)" style="fill: #bca9d4; stroke: #80649f; stroke-width: 0.7"/>
    <path d="M 323.007568 92.572033 
L 303.745895 101.31665 
L 323.007568 110.061266 
L 342.26924 101.31665 
z
" clip-path="url(#p8da47b9b46)" style="fill: #bca9d4; stroke: #80649f; stroke-width: 0.7"/>
    <path d="M 284.484222 92.572033 
L 265.222549 101.31665 
L 284.484222 110.061266 
L 303.745895 101.31665 
z
" clip-path="url(#p8da47b9b46)" style="fill: #bca9d4; stroke: #80649f; stroke-width: 0.7"/>
    <path d="M 380.792586 115.643355 
L 361.530913 124.387971 
L 380.792586 133.132588 
L 400.054259 124.387971 
z
" clip-path="url(#p8da47b9b46)" style="fill: #c1b0d8; stroke: #80649f; stroke-width: 0.7"/>
    <path d="M 303.745895 115.643355 
L 284.484222 124.387971 
L 303.745895 133.132588 
L 323.007568 124.387971 
z
" clip-path="url(#p8da47b9b46)" style="fill: #c1b0d8; stroke: #80649f; stroke-width: 0.7"/>
    <path d="M 342.26924 108.480002 
L 323.007568 117.224619 
L 342.26924 125.969235 
L 361.530913 117.224619 
z
" clip-path="url(#p8da47b9b46)" style="fill: #beacd6; stroke: #80649f; stroke-width: 0.7"/>
    <path d="M 265.222549 108.480002 
L 245.960876 117.224619 
L 265.222549 125.969235 
L 284.484222 117.224619 
z
" clip-path="url(#p8da47b9b46)" style="fill: #beacd6; stroke: #80649f; stroke-width: 0.7"/>
    <path d="M 400.054259 131.551324 
L 380.792586 140.29594 
L 400.054259 149.040557 
L 419.315932 140.29594 
z
" clip-path="url(#p8da47b9b46)" style="fill: #c4b4da; stroke: #80649f; stroke-width: 0.7"/>
    <path d="M 361.530913 131.551324 
L 342.26924 140.29594 
L 361.530913 149.040557 
L 380.792586 140.29594 
z
" clip-path="url(#p8da47b9b46)" style="fill: #c4b4da; stroke: #80649f; stroke-width: 0.7"/>
    <path d="M 323.007568 131.551324 
L 303.745895 140.29594 
L 323.007568 149.040557 
L 342.26924 140.29594 
z
" clip-path="url(#p8da47b9b46)" style="fill: #c4b4da; stroke: #80649f; stroke-width: 0.7"/>
    <path d="M 284.484222 131.551324 
L 265.222549 140.29594 
L 284.484222 149.040557 
L 303.745895 140.29594 
z
" clip-path="url(#p8da47b9b46)" style="fill: #c4b4da; stroke: #80649f; stroke-width: 0.7"/>
    <path d="M 245.960876 131.551324 
L 226.699203 140.29594 
L 245.960876 149.040557 
L 265.222549 140.29594 
z
" clip-path="url(#p8da47b9b46)" style="fill: #c4b4da; stroke: #80649f; stroke-width: 0.7"/>
    <path d="M 342.26924 154.622645 
L 323.007568 163.367262 
L 342.26924 172.111878 
L 361.530913 163.367262 
z
" clip-path="url(#p8da47b9b46)" style="fill: #cabbdd; stroke: #80649f; stroke-width: 0.7"/>
    <path d="M 265.222549 154.622645 
L 245.960876 163.367262 
L 265.222549 172.111878 
L 284.484222 163.367262 
z
" clip-path="url(#p8da47b9b46)" style="fill: #cabbdd; stroke: #80649f; stroke-width: 0.7"/>
    <path d="M 380.792586 147.459293 
L 361.530913 156.203909 
L 380.792586 164.948526 
L 400.054259 156.203909 
z
" clip-path="url(#p8da47b9b46)" style="fill: #c7b8db; stroke: #80649f; stroke-width: 0.7"/>
    <path d="M 303.745895 147.459293 
L 284.484222 156.203909 
L 303.745895 164.948526 
L 323.007568 156.203909 
z
" clip-path="url(#p8da47b9b46)" style="fill: #c7b8db; stroke: #80649f; stroke-width: 0.7"/>
    <path d="M 226.699203 147.459293 
L 207.437531 156.203909 
L 226.699203 164.948526 
L 245.960876 156.203909 
z
" clip-path="url(#p8da47b9b46)" style="fill: #c7b8db; stroke: #80649f; stroke-width: 0.7"/>
    <path d="M 419.315932 154.622645 
L 400.054259 163.367262 
L 438.577605 180.856494 
L 457.839277 172.111878 
z
" clip-path="url(#p8da47b9b46)" style="fill: #cabbdd; stroke: #80649f; stroke-width: 0.7"/>
    <path d="M 284.484222 170.530614 
L 265.222549 179.275231 
L 284.484222 188.019847 
L 303.745895 179.275231 
z
" clip-path="url(#p8da47b9b46)" style="fill: #cdbfdf; stroke: #80649f; stroke-width: 0.7"/>
    <path d="M 245.960876 170.530614 
L 226.699203 179.275231 
L 245.960876 188.019847 
L 265.222549 179.275231 
z
" clip-path="url(#p8da47b9b46)" style="fill: #cdbfdf; stroke: #80649f; stroke-width: 0.7"/>
    <path d="M 361.530913 170.530614 
L 342.26924 179.275231 
L 361.530913 188.019847 
L 380.792586 179.275231 
z
" clip-path="url(#p8da47b9b46)" style="fill: #cdbfdf; stroke: #80649f; stroke-width: 0.7"/>
    <path d="M 323.007568 170.530614 
L 303.745895 179.275231 
L 323.007568 188.019847 
L 342.26924 179.275231 
z
" clip-path="url(#p8da47b9b46)" style="fill: #cdbfdf; stroke: #80649f; stroke-width: 0.7"/>
    <path d="M 207.437531 163.367262 
L 188.175858 172.111878 
L 207.437531 180.856494 
L 226.699203 172.111878 
z
" clip-path="url(#p8da47b9b46)" style="fill: #cabbdd; stroke: #80649f; stroke-width: 0.7"/>
    <path d="M 400.054259 170.530614 
L 380.792586 179.275231 
L 419.315932 196.764463 
L 438.577605 188.019847 
z
" clip-path="url(#p8da47b9b46)" style="fill: #cdbfdf; stroke: #80649f; stroke-width: 0.7"/>
    <path d="M 303.745895 193.601935 
L 284.484222 202.346552 
L 303.745895 211.091168 
L 323.007568 202.346552 
z
" clip-path="url(#p8da47b9b46)" style="fill: #d3c7e3; stroke: #80649f; stroke-width: 0.7"/>
    <path d="M 342.26924 186.438583 
L 323.007568 195.183199 
L 342.26924 203.927816 
L 361.530913 195.183199 
z
" clip-path="url(#p8da47b9b46)" style="fill: #d0c3e1; stroke: #80649f; stroke-width: 0.7"/>
    <path d="M 265.222549 186.438583 
L 245.960876 195.183199 
L 265.222549 203.927816 
L 284.484222 195.183199 
z
" clip-path="url(#p8da47b9b46)" style="fill: #d0c3e1; stroke: #80649f; stroke-width: 0.7"/>
    <path d="M 226.699203 186.438583 
L 207.437531 195.183199 
L 226.699203 203.927816 
L 245.960876 195.183199 
z
" clip-path="url(#p8da47b9b46)" style="fill: #d0c3e1; stroke: #80649f; stroke-width: 0.7"/>
    <path d="M 188.175858 179.275231 
L 168.914185 188.019847 
L 188.175858 196.764463 
L 207.437531 188.019847 
z
" clip-path="url(#p8da47b9b46)" style="fill: #cdbfdf; stroke: #80649f; stroke-width: 0.7"/>
    <path d="M 380.792586 193.601935 
L 361.530913 202.346552 
L 400.054259 219.835785 
L 419.315932 211.091168 
z
" clip-path="url(#p8da47b9b46)" style="fill: #d3c7e3; stroke: #80649f; stroke-width: 0.7"/>
    <path d="M 457.839277 186.438583 
L 438.577605 195.183199 
L 477.10095 212.672432 
L 496.362623 203.927816 
z
" clip-path="url(#p8da47b9b46)" style="fill: #d0c3e1; stroke: #80649f; stroke-width: 0.7"/>
    <path d="M 323.007568 209.509904 
L 303.745895 218.254521 
L 323.007568 226.999137 
L 342.26924 218.254521 
z
" clip-path="url(#p8da47b9b46)" style="fill: #d6cbe5; stroke: #80649f; stroke-width: 0.7"/>
    <path d="M 284.484222 209.509904 
L 265.222549 218.254521 
L 284.484222 226.999137 
L 303.745895 218.254521 
z
" clip-path="url(#p8da47b9b46)" style="fill: #d6cbe5; stroke: #80649f; stroke-width: 0.7"/>
    <path d="M 245.960876 202.346552 
L 226.699203 211.091168 
L 245.960876 219.835785 
L 265.222549 211.091168 
z
" clip-path="url(#p8da47b9b46)" style="fill: #d3c7e3; stroke: #80649f; stroke-width: 0.7"/>
    <path d="M 207.437531 202.346552 
L 188.175858 211.091168 
L 207.437531 219.835785 
L 226.699203 211.091168 
z
" clip-path="url(#p8da47b9b46)" style="fill: #d3c7e3; stroke: #80649f; stroke-width: 0.7"/>
    <path d="M 361.530913 209.509904 
L 342.26924 218.254521 
L 380.792586 235.743754 
L 400.054259 226.999137 
z
" clip-path="url(#p8da47b9b46)" style="fill: #d6cbe5; stroke: #80649f; stroke-width: 0.7"/>
    <path d="M 438.577605 202.346552 
L 419.315932 211.091168 
L 457.839277 228.580401 
L 477.10095 219.835785 
z
" clip-path="url(#p8da47b9b46)" style="fill: #d3c7e3; stroke: #80649f; stroke-width: 0.7"/>
    <path d="M 303.745895 225.417873 
L 284.484222 234.16249 
L 303.745895 242.907106 
L 323.007568 234.16249 
z
" clip-path="url(#p8da47b9b46)" style="fill: #d9cee6; stroke: #80649f; stroke-width: 0.7"/>
    <path d="M 265.222549 225.417873 
L 245.960876 234.16249 
L 265.222549 242.907106 
L 284.484222 234.16249 
z
" clip-path="url(#p8da47b9b46)" style="fill: #d9cee6; stroke: #80649f; stroke-width: 0.7"/>
    <path d="M 168.914185 195.183199 
L 130.390839 212.672432 
L 149.652512 221.417049 
L 188.175858 203.927816 
z
" clip-path="url(#p8da47b9b46)" style="fill: #d0c3e1; stroke: #80649f; stroke-width: 0.7"/>
    <path d="M 226.699203 218.254521 
L 207.437531 226.999137 
L 226.699203 235.743754 
L 245.960876 226.999137 
z
" clip-path="url(#p8da47b9b46)" style="fill: #d6cbe5; stroke: #80649f; stroke-width: 0.7"/>
    <path d="M 342.26924 232.581226 
L 323.007568 241.325842 
L 361.530913 258.815075 
L 380.792586 250.070459 
z
" clip-path="url(#p8da47b9b46)" style="fill: #dcd2e8; stroke: #80649f; stroke-width: 0.7"/>
    <path d="M 496.362623 211.091168 
L 477.10095 219.835785 
L 496.362623 228.580401 
L 515.624296 219.835785 
z
" clip-path="url(#p8da47b9b46)" style="fill: #d3c7e3; stroke: #80649f; stroke-width: 0.7"/>
    <path d="M 419.315932 225.417873 
L 400.054259 234.16249 
L 438.577605 251.651723 
L 457.839277 242.907106 
z
" clip-path="url(#p8da47b9b46)" style="fill: #d9cee6; stroke: #80649f; stroke-width: 0.7"/>
    <path d="M 188.175858 218.254521 
L 149.652512 235.743754 
L 168.914185 244.48837 
L 207.437531 226.999137 
z
" clip-path="url(#p8da47b9b46)" style="fill: #d6cbe5; stroke: #80649f; stroke-width: 0.7"/>
    <path d="M 284.484222 241.325842 
L 265.222549 250.070459 
L 284.484222 258.815075 
L 303.745895 250.070459 
z
" clip-path="url(#p8da47b9b46)" style="fill: #dcd2e8; stroke: #80649f; stroke-width: 0.7"/>
    <path d="M 245.960876 241.325842 
L 226.699203 250.070459 
L 245.960876 258.815075 
L 265.222549 250.070459 
z
" clip-path="url(#p8da47b9b46)" style="fill: #dcd2e8; stroke: #80649f; stroke-width: 0.7"/>
    <path d="M 323.007568 248.489195 
L 303.745895 257.233811 
L 342.26924 274.723044 
L 361.530913 265.978428 
z
" clip-path="url(#p8da47b9b46)" style="fill: #dfd6ea; stroke: #80649f; stroke-width: 0.7"/>
    <path d="M 477.10095 226.999137 
L 457.839277 235.743754 
L 477.10095 244.48837 
L 496.362623 235.743754 
z
" clip-path="url(#p8da47b9b46)" style="fill: #d6cbe5; stroke: #80649f; stroke-width: 0.7"/>
    <path d="M 400.054259 241.325842 
L 380.792586 250.070459 
L 419.315932 267.559692 
L 438.577605 258.815075 
z
" clip-path="url(#p8da47b9b46)" style="fill: #dcd2e8; stroke: #80649f; stroke-width: 0.7"/>
    <path d="M 207.437531 234.16249 
L 168.914185 251.651723 
L 188.175858 260.396339 
L 226.699203 242.907106 
z
" clip-path="url(#p8da47b9b46)" style="fill: #d9cee6; stroke: #80649f; stroke-width: 0.7"/>
    <path d="M 265.222549 257.233811 
L 245.960876 265.978428 
L 265.222549 274.723044 
L 284.484222 265.978428 
z
" clip-path="url(#p8da47b9b46)" style="fill: #dfd6ea; stroke: #80649f; stroke-width: 0.7"/>
    <path d="M 457.839277 250.070459 
L 438.577605 258.815075 
L 457.839277 267.559692 
L 477.10095 258.815075 
z
" clip-path="url(#p8da47b9b46)" style="fill: #dcd2e8; stroke: #80649f; stroke-width: 0.7"/>
    <path d="M 303.745895 264.397164 
L 284.484222 273.14178 
L 323.007568 290.631013 
L 342.26924 281.886397 
z
" clip-path="url(#p8da47b9b46)" style="fill: #e1d9ec; stroke: #80649f; stroke-width: 0.7"/>
    <path d="M 380.792586 264.397164 
L 361.530913 273.14178 
L 400.054259 290.631013 
L 419.315932 281.886397 
z
" clip-path="url(#p8da47b9b46)" style="fill: #e1d9ec; stroke: #80649f; stroke-width: 0.7"/>
    <path d="M 226.699203 257.233811 
L 188.175858 274.723044 
L 207.437531 283.467661 
L 245.960876 265.978428 
z
" clip-path="url(#p8da47b9b46)" style="fill: #dfd6ea; stroke: #80649f; stroke-width: 0.7"/>
    <path d="M 438.577605 265.978428 
L 419.315932 274.723044 
L 438.577605 283.467661 
L 457.839277 274.723044 
z
" clip-path="url(#p8da47b9b46)" style="fill: #dfd6ea; stroke: #80649f; stroke-width: 0.7"/>
    <path d="M 361.530913 280.305133 
L 342.26924 289.049749 
L 380.792586 306.538982 
L 400.054259 297.794366 
z
" clip-path="url(#p8da47b9b46)" style="fill: #e4ddee; stroke: #80649f; stroke-width: 0.7"/>
    <path d="M 284.484222 280.305133 
L 265.222549 289.049749 
L 303.745895 306.538982 
L 323.007568 297.794366 
z
" clip-path="url(#p8da47b9b46)" style="fill: #e4ddee; stroke: #80649f; stroke-width: 0.7"/>
    <path d="M 245.960876 273.14178 
L 207.437531 290.631013 
L 226.699203 299.37563 
L 265.222549 281.886397 
z
" clip-path="url(#p8da47b9b46)" style="fill: #e1d9ec; stroke: #80649f; stroke-width: 0.7"/>
    <path d="M 419.315932 289.049749 
L 400.054259 297.794366 
L 419.315932 306.538982 
L 438.577605 297.794366 
z
" clip-path="url(#p8da47b9b46)" style="fill: #e4ddee; stroke: #80649f; stroke-width: 0.7"/>
    <path d="M 342.26924 296.213102 
L 323.007568 304.957718 
L 361.530913 322.446951 
L 380.792586 313.702335 
z
" clip-path="url(#p8da47b9b46)" style="fill: #e7e1f0; stroke: #80649f; stroke-width: 0.7"/>
    <path d="M 400.054259 304.957718 
L 380.792586 313.702335 
L 400.054259 322.446951 
L 419.315932 313.702335 
z
" clip-path="url(#p8da47b9b46)" style="fill: #e7e1f0; stroke: #80649f; stroke-width: 0.7"/>
    <path d="M 265.222549 296.213102 
L 226.699203 313.702335 
L 265.222549 331.191568 
L 303.745895 313.702335 
z
" clip-path="url(#p8da47b9b46)" style="fill: #e7e1f0; stroke: #80649f; stroke-width: 0.7"/>
    <path d="M 323.007568 312.121071 
L 303.745895 320.865687 
L 342.26924 338.35492 
L 361.530913 329.610304 
z
" clip-path="url(#p8da47b9b46)" style="fill: #eae5f1; stroke: #80649f; stroke-width: 0.7"/>
    <path d="M 380.792586 320.865687 
L 361.530913 329.610304 
L 380.792586 338.35492 
L 400.054259 329.610304 
z
" clip-path="url(#p8da47b9b46)" style="fill: #eae5f1; stroke: #80649f; stroke-width: 0.7"/>
    <path d="M 361.530913 336.773656 
L 342.26924 345.518273 
L 361.530913 354.262889 
L 380.792586 345.518273 
z
" clip-path="url(#p8da47b9b46)" style="fill: #ede9f3; stroke: #80649f; stroke-width: 0.7"/>
    <path d="M 303.745895 328.02904 
L 265.222549 345.518273 
L 303.745895 363.007506 
L 342.26924 345.518273 
z
" clip-path="url(#p8da47b9b46)" style="fill: #ede9f3; stroke: #80649f; stroke-width: 0.7"/>
    <path d="M 342.26924 352.681625 
L 303.745895 370.170858 
L 323.007568 378.915475 
L 361.530913 361.426242 
z
" clip-path="url(#p8da47b9b46)" style="fill: #f0ecf5; stroke: #80649f; stroke-width: 0.7"/>
   </g>
  </g>
 </g>
 <defs>
  <clipPath id="p8da47b9b46">
   <rect x="114.48" y="15.12" width="406.08" height="406.08"/>
  </clipPath>
 </defs>
</svg>
